%TF.GenerationSoftware,KiCad,Pcbnew,(5.1.9)-1*%
%TF.CreationDate,2021-09-01T12:14:14+02:00*%
%TF.ProjectId,scheda recinzione,73636865-6461-4207-9265-63696e7a696f,rev?*%
%TF.SameCoordinates,Original*%
%TF.FileFunction,Soldermask,Bot*%
%TF.FilePolarity,Negative*%
%FSLAX46Y46*%
G04 Gerber Fmt 4.6, Leading zero omitted, Abs format (unit mm)*
G04 Created by KiCad (PCBNEW (5.1.9)-1) date 2021-09-01 12:14:14*
%MOMM*%
%LPD*%
G01*
G04 APERTURE LIST*
%ADD10C,2.000000*%
%ADD11C,1.200000*%
%ADD12O,1.700000X1.950000*%
%ADD13R,2.000000X2.000000*%
%ADD14R,2.500000X3.000000*%
%ADD15O,2.200000X2.200000*%
%ADD16R,2.200000X2.200000*%
%ADD17C,2.700000*%
%ADD18C,3.000000*%
%ADD19C,4.300000*%
%ADD20R,3.000000X3.000000*%
%ADD21C,1.800000*%
%ADD22R,1.800000X1.800000*%
%ADD23O,2.000000X1.905000*%
%ADD24R,2.000000X1.905000*%
%ADD25O,1.600000X1.600000*%
%ADD26R,1.600000X1.600000*%
%ADD27C,1.600000*%
%ADD28O,1.980000X3.960000*%
%ADD29R,1.980000X3.960000*%
G04 APERTURE END LIST*
D10*
%TO.C,TP10*%
X260604000Y-107696000D03*
%TD*%
%TO.C,TP9*%
X256286000Y-107696000D03*
%TD*%
%TO.C,TP8*%
X182626000Y-119126000D03*
%TD*%
%TO.C,TP7*%
X242824000Y-116840000D03*
%TD*%
%TO.C,TP6*%
X246888000Y-116840000D03*
%TD*%
%TO.C,TP5*%
X197866000Y-119380000D03*
%TD*%
%TO.C,TP3*%
X265938000Y-108712000D03*
%TD*%
%TO.C,TP2*%
X215138000Y-122174000D03*
%TD*%
%TO.C,TP1*%
X241046000Y-121920000D03*
%TD*%
%TO.C,TP4*%
X247650000Y-112014000D03*
%TD*%
D11*
%TO.C,J1*%
X237566000Y-120174000D03*
D12*
X230966000Y-122174000D03*
X233466000Y-122174000D03*
G36*
G01*
X236816000Y-121449000D02*
X236816000Y-122899000D01*
G75*
G02*
X236566000Y-123149000I-250000J0D01*
G01*
X235366000Y-123149000D01*
G75*
G02*
X235116000Y-122899000I0J250000D01*
G01*
X235116000Y-121449000D01*
G75*
G02*
X235366000Y-121199000I250000J0D01*
G01*
X236566000Y-121199000D01*
G75*
G02*
X236816000Y-121449000I0J-250000D01*
G01*
G37*
%TD*%
D13*
%TO.C,J9*%
X236728000Y-99822000D03*
D10*
X234228000Y-99822000D03*
X231728000Y-99822000D03*
D14*
X239828000Y-107322000D03*
X228628000Y-107322000D03*
D10*
X236728000Y-114322000D03*
X231728000Y-114322000D03*
%TD*%
D15*
%TO.C,D13*%
X262128000Y-85852000D03*
D16*
X251968000Y-85852000D03*
%TD*%
D15*
%TO.C,D12*%
X248158000Y-85852000D03*
D16*
X237998000Y-85852000D03*
%TD*%
D17*
%TO.C,F1*%
X236908000Y-139192000D03*
D18*
X225658000Y-139192000D03*
X248158000Y-139192000D03*
%TD*%
D19*
%TO.C,H4*%
X272796000Y-153924000D03*
%TD*%
%TO.C,H3*%
X184658000Y-154178000D03*
%TD*%
%TO.C,H2*%
X273050000Y-87630000D03*
%TD*%
%TO.C,H1*%
X230886000Y-87122000D03*
%TD*%
D17*
%TO.C,F2*%
X186436000Y-134186000D03*
D18*
X186436000Y-145436000D03*
X186436000Y-122936000D03*
%TD*%
D20*
%TO.C,K2*%
X260350000Y-118110000D03*
D18*
X252850000Y-118110000D03*
X260350000Y-138110000D03*
X252850000Y-143110000D03*
X252850000Y-133110000D03*
X260350000Y-133110000D03*
X252850000Y-138110000D03*
X260350000Y-143110000D03*
%TD*%
D20*
%TO.C,J4*%
X243332000Y-152146000D03*
D18*
X238332000Y-152146000D03*
X233332000Y-152146000D03*
X228332000Y-152146000D03*
%TD*%
D21*
%TO.C,D9*%
X223026000Y-110998000D03*
D22*
X223026000Y-113538000D03*
%TD*%
D23*
%TO.C,U1*%
X197612000Y-128016000D03*
X197612000Y-130556000D03*
D24*
X197612000Y-133096000D03*
%TD*%
D25*
%TO.C,A1*%
X219964000Y-85344000D03*
X219964000Y-100584000D03*
X184404000Y-85344000D03*
X217424000Y-100584000D03*
X186944000Y-85344000D03*
X214884000Y-100584000D03*
X189484000Y-85344000D03*
X212344000Y-100584000D03*
X192024000Y-85344000D03*
X209804000Y-100584000D03*
X194564000Y-85344000D03*
X207264000Y-100584000D03*
X197104000Y-85344000D03*
X204724000Y-100584000D03*
X199644000Y-85344000D03*
X202184000Y-100584000D03*
X202184000Y-85344000D03*
X199644000Y-100584000D03*
X204724000Y-85344000D03*
X197104000Y-100584000D03*
X207264000Y-85344000D03*
X194564000Y-100584000D03*
X209804000Y-85344000D03*
X192024000Y-100584000D03*
X212344000Y-85344000D03*
X189484000Y-100584000D03*
X214884000Y-85344000D03*
X186944000Y-100584000D03*
X217424000Y-85344000D03*
D26*
X184404000Y-100584000D03*
%TD*%
D21*
%TO.C,D3*%
X185166000Y-110998000D03*
D22*
X185166000Y-113538000D03*
%TD*%
D21*
%TO.C,D8*%
X216916000Y-110998000D03*
D22*
X216916000Y-113538000D03*
%TD*%
D15*
%TO.C,D11*%
X212344000Y-126746000D03*
D16*
X202184000Y-126746000D03*
%TD*%
D27*
%TO.C,C13*%
X212344000Y-132374000D03*
D26*
X212344000Y-134874000D03*
%TD*%
D27*
%TO.C,C12*%
X203962000Y-131074000D03*
D26*
X203962000Y-134874000D03*
%TD*%
D20*
%TO.C,J5*%
X264922000Y-152146000D03*
D18*
X259922000Y-152146000D03*
X254922000Y-152146000D03*
X249922000Y-152146000D03*
%TD*%
D21*
%TO.C,D7*%
X210566000Y-110998000D03*
D22*
X210566000Y-113538000D03*
%TD*%
D21*
%TO.C,D6*%
X204216000Y-110998000D03*
D22*
X204216000Y-113538000D03*
%TD*%
D21*
%TO.C,D5*%
X197866000Y-110998000D03*
D22*
X197866000Y-113538000D03*
%TD*%
D21*
%TO.C,D4*%
X191516000Y-110998000D03*
D22*
X191516000Y-113538000D03*
%TD*%
D28*
%TO.C,J7*%
X195406000Y-152400000D03*
D29*
X200406000Y-152400000D03*
%TD*%
%TO.C,J3*%
X221742000Y-152146000D03*
D28*
X216742000Y-152146000D03*
%TD*%
D11*
%TO.C,J2*%
X226390000Y-120174000D03*
D12*
X219790000Y-122174000D03*
X222290000Y-122174000D03*
G36*
G01*
X225640000Y-121449000D02*
X225640000Y-122899000D01*
G75*
G02*
X225390000Y-123149000I-250000J0D01*
G01*
X224190000Y-123149000D01*
G75*
G02*
X223940000Y-122899000I0J250000D01*
G01*
X223940000Y-121449000D01*
G75*
G02*
X224190000Y-121199000I250000J0D01*
G01*
X225390000Y-121199000D01*
G75*
G02*
X225640000Y-121449000I0J-250000D01*
G01*
G37*
%TD*%
D15*
%TO.C,D10*%
X196342000Y-139954000D03*
D16*
X206502000Y-139954000D03*
%TD*%
D20*
%TO.C,K1*%
X274320000Y-118110000D03*
D18*
X266820000Y-118110000D03*
X274320000Y-138110000D03*
X266820000Y-143110000D03*
X266820000Y-133110000D03*
X274320000Y-133110000D03*
X266820000Y-138110000D03*
X274320000Y-143110000D03*
%TD*%
D16*
%TO.C,D2*%
X261620000Y-112268000D03*
D15*
X251460000Y-112268000D03*
%TD*%
D16*
%TO.C,D1*%
X275590000Y-112268000D03*
D15*
X265430000Y-112268000D03*
%TD*%
M02*
