M48
; DRILL file {KiCad (5.1.9)-1} date 09/01/21 12:14:19
; FORMAT={-:-/ absolute / metric / decimal}
; #@! TF.CreationDate,2021-09-01T12:14:19+02:00
; #@! TF.GenerationSoftware,Kicad,Pcbnew,(5.1.9)-1
; #@! TF.FileFunction,Plated,1,2,PTH
FMAT,2
METRIC
T1C0.400
T2C0.800
T3C0.900
T4C0.950
T5C1.000
T6C1.100
T7C1.300
T8C1.320
T9C1.500
T10C2.000
%
G90
G05
T1
X193.294Y-88.646
X193.294Y-92.202
X193.294Y-95.25
X193.802Y-118.11
X195.072Y-88.646
X195.072Y-92.202
X195.072Y-95.25
X196.85Y-88.646
X196.85Y-92.202
X196.85Y-95.25
X198.628Y-88.646
X198.628Y-92.202
X198.628Y-95.25
X200.406Y-88.646
X200.406Y-92.202
X200.406Y-95.25
X202.184Y-88.646
X202.184Y-92.202
X202.184Y-95.25
X218.948Y-104.902
X222.25Y-103.124
X223.774Y-104.394
X228.854Y-96.012
X234.95Y-92.202
X236.728Y-90.424
X237.49Y-105.156
X240.792Y-103.632
X241.123Y-97.156
X242.316Y-107.188
X243.84Y-93.472
X245.11Y-99.06
X248.412Y-91.44
X248.703Y-100.838
X248.92Y-96.52
X248.92Y-105.156
X249.174Y-94.742
X249.428Y-90.17
X249.428Y-102.362
X249.898Y-107.941
X249.936Y-104.648
X252.73Y-110.236
X253.492Y-104.568
X255.519Y-94.493
X255.524Y-120.142
X256.238Y-99.093
X261.112Y-100.33
X262.128Y-94.959
X263.144Y-93.472
X263.144Y-102.362
X263.144Y-104.648
X263.869Y-96.167
X267.716Y-98.552
X268.986Y-98.552
X268.986Y-105.41
X268.986Y-106.68
X269.748Y-107.442
X272.288Y-99.314
T2
X203.962Y-131.074
X203.962Y-134.874
X212.344Y-132.374
X212.344Y-134.874
T3
X185.166Y-110.998
X185.166Y-113.538
X191.516Y-110.998
X191.516Y-113.538
X197.866Y-110.998
X197.866Y-113.538
X204.216Y-110.998
X204.216Y-113.538
X210.566Y-110.998
X210.566Y-113.538
X216.916Y-110.998
X216.916Y-113.538
X223.026Y-110.998
X223.026Y-113.538
T4
X219.79Y-122.174
X222.29Y-122.174
X224.79Y-122.174
X230.966Y-122.174
X233.466Y-122.174
X235.966Y-122.174
T5
X182.626Y-119.126
X184.404Y-85.344
X184.404Y-100.584
X186.944Y-85.344
X186.944Y-100.584
X189.484Y-85.344
X189.484Y-100.584
X192.024Y-85.344
X192.024Y-100.584
X194.564Y-85.344
X194.564Y-100.584
X197.104Y-85.344
X197.104Y-100.584
X197.866Y-119.38
X199.644Y-85.344
X199.644Y-100.584
X202.184Y-85.344
X202.184Y-100.584
X204.724Y-85.344
X204.724Y-100.584
X207.264Y-85.344
X207.264Y-100.584
X209.804Y-85.344
X209.804Y-100.584
X212.344Y-85.344
X212.344Y-100.584
X214.884Y-85.344
X214.884Y-100.584
X215.138Y-122.174
X217.424Y-85.344
X217.424Y-100.584
X219.964Y-85.344
X219.964Y-100.584
X231.728Y-99.822
X231.728Y-114.322
X234.228Y-99.822
X236.728Y-99.822
X236.728Y-114.322
X241.046Y-121.92
X242.824Y-116.84
X246.888Y-116.84
X247.65Y-112.014
X256.286Y-107.696
X260.604Y-107.696
X265.938Y-108.712
T6
X196.342Y-139.954
X197.612Y-128.016
X197.612Y-130.556
X197.612Y-133.096
X202.184Y-126.746
X206.502Y-139.954
X212.344Y-126.746
X237.998Y-85.852
X248.158Y-85.852
X251.46Y-112.268
X251.968Y-85.852
X261.62Y-112.268
X262.128Y-85.852
X265.43Y-112.268
X275.59Y-112.268
T7
X186.436Y-122.936
X186.436Y-145.436
X225.658Y-139.192
X248.158Y-139.192
T8
X195.406Y-152.4
X200.406Y-152.4
X216.742Y-152.146
X221.742Y-152.146
T9
X228.332Y-152.146
X233.332Y-152.146
X238.332Y-152.146
X243.332Y-152.146
X249.922Y-152.146
X252.85Y-118.11
X252.85Y-133.11
X252.85Y-138.11
X252.85Y-143.11
X254.922Y-152.146
X259.922Y-152.146
X260.35Y-118.11
X260.35Y-133.11
X260.35Y-138.11
X260.35Y-143.11
X264.922Y-152.146
X266.82Y-118.11
X266.82Y-133.11
X266.82Y-138.11
X266.82Y-143.11
X274.32Y-118.11
X274.32Y-133.11
X274.32Y-138.11
X274.32Y-143.11
T10
G00X228.628Y-107.072
M15
G01X228.628Y-107.572
M16
G05
G00X239.828Y-107.072
M15
G01X239.828Y-107.572
M16
G05
T0
M30
