%TF.GenerationSoftware,KiCad,Pcbnew,(5.1.9)-1*%
%TF.CreationDate,2021-09-01T12:14:14+02:00*%
%TF.ProjectId,scheda recinzione,73636865-6461-4207-9265-63696e7a696f,rev?*%
%TF.SameCoordinates,Original*%
%TF.FileFunction,Paste,Top*%
%TF.FilePolarity,Positive*%
%FSLAX46Y46*%
G04 Gerber Fmt 4.6, Leading zero omitted, Abs format (unit mm)*
G04 Created by KiCad (PCBNEW (5.1.9)-1) date 2021-09-01 12:14:14*
%MOMM*%
%LPD*%
G01*
G04 APERTURE LIST*
%ADD10R,1.550000X1.300000*%
%ADD11R,0.900000X0.800000*%
G04 APERTURE END LIST*
D10*
%TO.C,SW2*%
X202781000Y-117892000D03*
X202781000Y-122392000D03*
X210731000Y-122392000D03*
X210731000Y-117892000D03*
%TD*%
D11*
%TO.C,Q2*%
X273828000Y-98044000D03*
X275828000Y-97094000D03*
X275828000Y-98994000D03*
%TD*%
%TO.C,Q1*%
X273828000Y-106934000D03*
X275828000Y-105984000D03*
X275828000Y-107884000D03*
%TD*%
%TO.C,U3*%
G36*
G01*
X250928000Y-100988000D02*
X250928000Y-100688000D01*
G75*
G02*
X251078000Y-100538000I150000J0D01*
G01*
X252728000Y-100538000D01*
G75*
G02*
X252878000Y-100688000I0J-150000D01*
G01*
X252878000Y-100988000D01*
G75*
G02*
X252728000Y-101138000I-150000J0D01*
G01*
X251078000Y-101138000D01*
G75*
G02*
X250928000Y-100988000I0J150000D01*
G01*
G37*
G36*
G01*
X250928000Y-102258000D02*
X250928000Y-101958000D01*
G75*
G02*
X251078000Y-101808000I150000J0D01*
G01*
X252728000Y-101808000D01*
G75*
G02*
X252878000Y-101958000I0J-150000D01*
G01*
X252878000Y-102258000D01*
G75*
G02*
X252728000Y-102408000I-150000J0D01*
G01*
X251078000Y-102408000D01*
G75*
G02*
X250928000Y-102258000I0J150000D01*
G01*
G37*
G36*
G01*
X250928000Y-103528000D02*
X250928000Y-103228000D01*
G75*
G02*
X251078000Y-103078000I150000J0D01*
G01*
X252728000Y-103078000D01*
G75*
G02*
X252878000Y-103228000I0J-150000D01*
G01*
X252878000Y-103528000D01*
G75*
G02*
X252728000Y-103678000I-150000J0D01*
G01*
X251078000Y-103678000D01*
G75*
G02*
X250928000Y-103528000I0J150000D01*
G01*
G37*
G36*
G01*
X250928000Y-104798000D02*
X250928000Y-104498000D01*
G75*
G02*
X251078000Y-104348000I150000J0D01*
G01*
X252728000Y-104348000D01*
G75*
G02*
X252878000Y-104498000I0J-150000D01*
G01*
X252878000Y-104798000D01*
G75*
G02*
X252728000Y-104948000I-150000J0D01*
G01*
X251078000Y-104948000D01*
G75*
G02*
X250928000Y-104798000I0J150000D01*
G01*
G37*
G36*
G01*
X250928000Y-106068000D02*
X250928000Y-105768000D01*
G75*
G02*
X251078000Y-105618000I150000J0D01*
G01*
X252728000Y-105618000D01*
G75*
G02*
X252878000Y-105768000I0J-150000D01*
G01*
X252878000Y-106068000D01*
G75*
G02*
X252728000Y-106218000I-150000J0D01*
G01*
X251078000Y-106218000D01*
G75*
G02*
X250928000Y-106068000I0J150000D01*
G01*
G37*
G36*
G01*
X250928000Y-107338000D02*
X250928000Y-107038000D01*
G75*
G02*
X251078000Y-106888000I150000J0D01*
G01*
X252728000Y-106888000D01*
G75*
G02*
X252878000Y-107038000I0J-150000D01*
G01*
X252878000Y-107338000D01*
G75*
G02*
X252728000Y-107488000I-150000J0D01*
G01*
X251078000Y-107488000D01*
G75*
G02*
X250928000Y-107338000I0J150000D01*
G01*
G37*
G36*
G01*
X250928000Y-108608000D02*
X250928000Y-108308000D01*
G75*
G02*
X251078000Y-108158000I150000J0D01*
G01*
X252728000Y-108158000D01*
G75*
G02*
X252878000Y-108308000I0J-150000D01*
G01*
X252878000Y-108608000D01*
G75*
G02*
X252728000Y-108758000I-150000J0D01*
G01*
X251078000Y-108758000D01*
G75*
G02*
X250928000Y-108608000I0J150000D01*
G01*
G37*
G36*
G01*
X245978000Y-108608000D02*
X245978000Y-108308000D01*
G75*
G02*
X246128000Y-108158000I150000J0D01*
G01*
X247778000Y-108158000D01*
G75*
G02*
X247928000Y-108308000I0J-150000D01*
G01*
X247928000Y-108608000D01*
G75*
G02*
X247778000Y-108758000I-150000J0D01*
G01*
X246128000Y-108758000D01*
G75*
G02*
X245978000Y-108608000I0J150000D01*
G01*
G37*
G36*
G01*
X245978000Y-107338000D02*
X245978000Y-107038000D01*
G75*
G02*
X246128000Y-106888000I150000J0D01*
G01*
X247778000Y-106888000D01*
G75*
G02*
X247928000Y-107038000I0J-150000D01*
G01*
X247928000Y-107338000D01*
G75*
G02*
X247778000Y-107488000I-150000J0D01*
G01*
X246128000Y-107488000D01*
G75*
G02*
X245978000Y-107338000I0J150000D01*
G01*
G37*
G36*
G01*
X245978000Y-106068000D02*
X245978000Y-105768000D01*
G75*
G02*
X246128000Y-105618000I150000J0D01*
G01*
X247778000Y-105618000D01*
G75*
G02*
X247928000Y-105768000I0J-150000D01*
G01*
X247928000Y-106068000D01*
G75*
G02*
X247778000Y-106218000I-150000J0D01*
G01*
X246128000Y-106218000D01*
G75*
G02*
X245978000Y-106068000I0J150000D01*
G01*
G37*
G36*
G01*
X245978000Y-104798000D02*
X245978000Y-104498000D01*
G75*
G02*
X246128000Y-104348000I150000J0D01*
G01*
X247778000Y-104348000D01*
G75*
G02*
X247928000Y-104498000I0J-150000D01*
G01*
X247928000Y-104798000D01*
G75*
G02*
X247778000Y-104948000I-150000J0D01*
G01*
X246128000Y-104948000D01*
G75*
G02*
X245978000Y-104798000I0J150000D01*
G01*
G37*
G36*
G01*
X245978000Y-103528000D02*
X245978000Y-103228000D01*
G75*
G02*
X246128000Y-103078000I150000J0D01*
G01*
X247778000Y-103078000D01*
G75*
G02*
X247928000Y-103228000I0J-150000D01*
G01*
X247928000Y-103528000D01*
G75*
G02*
X247778000Y-103678000I-150000J0D01*
G01*
X246128000Y-103678000D01*
G75*
G02*
X245978000Y-103528000I0J150000D01*
G01*
G37*
G36*
G01*
X245978000Y-102258000D02*
X245978000Y-101958000D01*
G75*
G02*
X246128000Y-101808000I150000J0D01*
G01*
X247778000Y-101808000D01*
G75*
G02*
X247928000Y-101958000I0J-150000D01*
G01*
X247928000Y-102258000D01*
G75*
G02*
X247778000Y-102408000I-150000J0D01*
G01*
X246128000Y-102408000D01*
G75*
G02*
X245978000Y-102258000I0J150000D01*
G01*
G37*
G36*
G01*
X245978000Y-100988000D02*
X245978000Y-100688000D01*
G75*
G02*
X246128000Y-100538000I150000J0D01*
G01*
X247778000Y-100538000D01*
G75*
G02*
X247928000Y-100688000I0J-150000D01*
G01*
X247928000Y-100988000D01*
G75*
G02*
X247778000Y-101138000I-150000J0D01*
G01*
X246128000Y-101138000D01*
G75*
G02*
X245978000Y-100988000I0J150000D01*
G01*
G37*
%TD*%
%TO.C,U2*%
G36*
G01*
X250674000Y-90574000D02*
X250674000Y-90274000D01*
G75*
G02*
X250824000Y-90124000I150000J0D01*
G01*
X252474000Y-90124000D01*
G75*
G02*
X252624000Y-90274000I0J-150000D01*
G01*
X252624000Y-90574000D01*
G75*
G02*
X252474000Y-90724000I-150000J0D01*
G01*
X250824000Y-90724000D01*
G75*
G02*
X250674000Y-90574000I0J150000D01*
G01*
G37*
G36*
G01*
X250674000Y-91844000D02*
X250674000Y-91544000D01*
G75*
G02*
X250824000Y-91394000I150000J0D01*
G01*
X252474000Y-91394000D01*
G75*
G02*
X252624000Y-91544000I0J-150000D01*
G01*
X252624000Y-91844000D01*
G75*
G02*
X252474000Y-91994000I-150000J0D01*
G01*
X250824000Y-91994000D01*
G75*
G02*
X250674000Y-91844000I0J150000D01*
G01*
G37*
G36*
G01*
X250674000Y-93114000D02*
X250674000Y-92814000D01*
G75*
G02*
X250824000Y-92664000I150000J0D01*
G01*
X252474000Y-92664000D01*
G75*
G02*
X252624000Y-92814000I0J-150000D01*
G01*
X252624000Y-93114000D01*
G75*
G02*
X252474000Y-93264000I-150000J0D01*
G01*
X250824000Y-93264000D01*
G75*
G02*
X250674000Y-93114000I0J150000D01*
G01*
G37*
G36*
G01*
X250674000Y-94384000D02*
X250674000Y-94084000D01*
G75*
G02*
X250824000Y-93934000I150000J0D01*
G01*
X252474000Y-93934000D01*
G75*
G02*
X252624000Y-94084000I0J-150000D01*
G01*
X252624000Y-94384000D01*
G75*
G02*
X252474000Y-94534000I-150000J0D01*
G01*
X250824000Y-94534000D01*
G75*
G02*
X250674000Y-94384000I0J150000D01*
G01*
G37*
G36*
G01*
X250674000Y-95654000D02*
X250674000Y-95354000D01*
G75*
G02*
X250824000Y-95204000I150000J0D01*
G01*
X252474000Y-95204000D01*
G75*
G02*
X252624000Y-95354000I0J-150000D01*
G01*
X252624000Y-95654000D01*
G75*
G02*
X252474000Y-95804000I-150000J0D01*
G01*
X250824000Y-95804000D01*
G75*
G02*
X250674000Y-95654000I0J150000D01*
G01*
G37*
G36*
G01*
X250674000Y-96924000D02*
X250674000Y-96624000D01*
G75*
G02*
X250824000Y-96474000I150000J0D01*
G01*
X252474000Y-96474000D01*
G75*
G02*
X252624000Y-96624000I0J-150000D01*
G01*
X252624000Y-96924000D01*
G75*
G02*
X252474000Y-97074000I-150000J0D01*
G01*
X250824000Y-97074000D01*
G75*
G02*
X250674000Y-96924000I0J150000D01*
G01*
G37*
G36*
G01*
X250674000Y-98194000D02*
X250674000Y-97894000D01*
G75*
G02*
X250824000Y-97744000I150000J0D01*
G01*
X252474000Y-97744000D01*
G75*
G02*
X252624000Y-97894000I0J-150000D01*
G01*
X252624000Y-98194000D01*
G75*
G02*
X252474000Y-98344000I-150000J0D01*
G01*
X250824000Y-98344000D01*
G75*
G02*
X250674000Y-98194000I0J150000D01*
G01*
G37*
G36*
G01*
X245724000Y-98194000D02*
X245724000Y-97894000D01*
G75*
G02*
X245874000Y-97744000I150000J0D01*
G01*
X247524000Y-97744000D01*
G75*
G02*
X247674000Y-97894000I0J-150000D01*
G01*
X247674000Y-98194000D01*
G75*
G02*
X247524000Y-98344000I-150000J0D01*
G01*
X245874000Y-98344000D01*
G75*
G02*
X245724000Y-98194000I0J150000D01*
G01*
G37*
G36*
G01*
X245724000Y-96924000D02*
X245724000Y-96624000D01*
G75*
G02*
X245874000Y-96474000I150000J0D01*
G01*
X247524000Y-96474000D01*
G75*
G02*
X247674000Y-96624000I0J-150000D01*
G01*
X247674000Y-96924000D01*
G75*
G02*
X247524000Y-97074000I-150000J0D01*
G01*
X245874000Y-97074000D01*
G75*
G02*
X245724000Y-96924000I0J150000D01*
G01*
G37*
G36*
G01*
X245724000Y-95654000D02*
X245724000Y-95354000D01*
G75*
G02*
X245874000Y-95204000I150000J0D01*
G01*
X247524000Y-95204000D01*
G75*
G02*
X247674000Y-95354000I0J-150000D01*
G01*
X247674000Y-95654000D01*
G75*
G02*
X247524000Y-95804000I-150000J0D01*
G01*
X245874000Y-95804000D01*
G75*
G02*
X245724000Y-95654000I0J150000D01*
G01*
G37*
G36*
G01*
X245724000Y-94384000D02*
X245724000Y-94084000D01*
G75*
G02*
X245874000Y-93934000I150000J0D01*
G01*
X247524000Y-93934000D01*
G75*
G02*
X247674000Y-94084000I0J-150000D01*
G01*
X247674000Y-94384000D01*
G75*
G02*
X247524000Y-94534000I-150000J0D01*
G01*
X245874000Y-94534000D01*
G75*
G02*
X245724000Y-94384000I0J150000D01*
G01*
G37*
G36*
G01*
X245724000Y-93114000D02*
X245724000Y-92814000D01*
G75*
G02*
X245874000Y-92664000I150000J0D01*
G01*
X247524000Y-92664000D01*
G75*
G02*
X247674000Y-92814000I0J-150000D01*
G01*
X247674000Y-93114000D01*
G75*
G02*
X247524000Y-93264000I-150000J0D01*
G01*
X245874000Y-93264000D01*
G75*
G02*
X245724000Y-93114000I0J150000D01*
G01*
G37*
G36*
G01*
X245724000Y-91844000D02*
X245724000Y-91544000D01*
G75*
G02*
X245874000Y-91394000I150000J0D01*
G01*
X247524000Y-91394000D01*
G75*
G02*
X247674000Y-91544000I0J-150000D01*
G01*
X247674000Y-91844000D01*
G75*
G02*
X247524000Y-91994000I-150000J0D01*
G01*
X245874000Y-91994000D01*
G75*
G02*
X245724000Y-91844000I0J150000D01*
G01*
G37*
G36*
G01*
X245724000Y-90574000D02*
X245724000Y-90274000D01*
G75*
G02*
X245874000Y-90124000I150000J0D01*
G01*
X247524000Y-90124000D01*
G75*
G02*
X247674000Y-90274000I0J-150000D01*
G01*
X247674000Y-90574000D01*
G75*
G02*
X247524000Y-90724000I-150000J0D01*
G01*
X245874000Y-90724000D01*
G75*
G02*
X245724000Y-90574000I0J150000D01*
G01*
G37*
%TD*%
%TO.C,R33*%
G36*
G01*
X244544001Y-111868000D02*
X243643999Y-111868000D01*
G75*
G02*
X243394000Y-111618001I0J249999D01*
G01*
X243394000Y-111092999D01*
G75*
G02*
X243643999Y-110843000I249999J0D01*
G01*
X244544001Y-110843000D01*
G75*
G02*
X244794000Y-111092999I0J-249999D01*
G01*
X244794000Y-111618001D01*
G75*
G02*
X244544001Y-111868000I-249999J0D01*
G01*
G37*
G36*
G01*
X244544001Y-113693000D02*
X243643999Y-113693000D01*
G75*
G02*
X243394000Y-113443001I0J249999D01*
G01*
X243394000Y-112917999D01*
G75*
G02*
X243643999Y-112668000I249999J0D01*
G01*
X244544001Y-112668000D01*
G75*
G02*
X244794000Y-112917999I0J-249999D01*
G01*
X244794000Y-113443001D01*
G75*
G02*
X244544001Y-113693000I-249999J0D01*
G01*
G37*
%TD*%
%TO.C,R32*%
G36*
G01*
X243643999Y-105556000D02*
X244544001Y-105556000D01*
G75*
G02*
X244794000Y-105805999I0J-249999D01*
G01*
X244794000Y-106331001D01*
G75*
G02*
X244544001Y-106581000I-249999J0D01*
G01*
X243643999Y-106581000D01*
G75*
G02*
X243394000Y-106331001I0J249999D01*
G01*
X243394000Y-105805999D01*
G75*
G02*
X243643999Y-105556000I249999J0D01*
G01*
G37*
G36*
G01*
X243643999Y-103731000D02*
X244544001Y-103731000D01*
G75*
G02*
X244794000Y-103980999I0J-249999D01*
G01*
X244794000Y-104506001D01*
G75*
G02*
X244544001Y-104756000I-249999J0D01*
G01*
X243643999Y-104756000D01*
G75*
G02*
X243394000Y-104506001I0J249999D01*
G01*
X243394000Y-103980999D01*
G75*
G02*
X243643999Y-103731000I249999J0D01*
G01*
G37*
%TD*%
%TO.C,R31*%
G36*
G01*
X244544001Y-108312000D02*
X243643999Y-108312000D01*
G75*
G02*
X243394000Y-108062001I0J249999D01*
G01*
X243394000Y-107536999D01*
G75*
G02*
X243643999Y-107287000I249999J0D01*
G01*
X244544001Y-107287000D01*
G75*
G02*
X244794000Y-107536999I0J-249999D01*
G01*
X244794000Y-108062001D01*
G75*
G02*
X244544001Y-108312000I-249999J0D01*
G01*
G37*
G36*
G01*
X244544001Y-110137000D02*
X243643999Y-110137000D01*
G75*
G02*
X243394000Y-109887001I0J249999D01*
G01*
X243394000Y-109361999D01*
G75*
G02*
X243643999Y-109112000I249999J0D01*
G01*
X244544001Y-109112000D01*
G75*
G02*
X244794000Y-109361999I0J-249999D01*
G01*
X244794000Y-109887001D01*
G75*
G02*
X244544001Y-110137000I-249999J0D01*
G01*
G37*
%TD*%
%TO.C,R30*%
G36*
G01*
X244544001Y-101200000D02*
X243643999Y-101200000D01*
G75*
G02*
X243394000Y-100950001I0J249999D01*
G01*
X243394000Y-100424999D01*
G75*
G02*
X243643999Y-100175000I249999J0D01*
G01*
X244544001Y-100175000D01*
G75*
G02*
X244794000Y-100424999I0J-249999D01*
G01*
X244794000Y-100950001D01*
G75*
G02*
X244544001Y-101200000I-249999J0D01*
G01*
G37*
G36*
G01*
X244544001Y-103025000D02*
X243643999Y-103025000D01*
G75*
G02*
X243394000Y-102775001I0J249999D01*
G01*
X243394000Y-102249999D01*
G75*
G02*
X243643999Y-102000000I249999J0D01*
G01*
X244544001Y-102000000D01*
G75*
G02*
X244794000Y-102249999I0J-249999D01*
G01*
X244794000Y-102775001D01*
G75*
G02*
X244544001Y-103025000I-249999J0D01*
G01*
G37*
%TD*%
%TO.C,R29*%
G36*
G01*
X264725999Y-98444000D02*
X265626001Y-98444000D01*
G75*
G02*
X265876000Y-98693999I0J-249999D01*
G01*
X265876000Y-99219001D01*
G75*
G02*
X265626001Y-99469000I-249999J0D01*
G01*
X264725999Y-99469000D01*
G75*
G02*
X264476000Y-99219001I0J249999D01*
G01*
X264476000Y-98693999D01*
G75*
G02*
X264725999Y-98444000I249999J0D01*
G01*
G37*
G36*
G01*
X264725999Y-96619000D02*
X265626001Y-96619000D01*
G75*
G02*
X265876000Y-96868999I0J-249999D01*
G01*
X265876000Y-97394001D01*
G75*
G02*
X265626001Y-97644000I-249999J0D01*
G01*
X264725999Y-97644000D01*
G75*
G02*
X264476000Y-97394001I0J249999D01*
G01*
X264476000Y-96868999D01*
G75*
G02*
X264725999Y-96619000I249999J0D01*
G01*
G37*
%TD*%
%TO.C,R28*%
G36*
G01*
X264725999Y-94380000D02*
X265626001Y-94380000D01*
G75*
G02*
X265876000Y-94629999I0J-249999D01*
G01*
X265876000Y-95155001D01*
G75*
G02*
X265626001Y-95405000I-249999J0D01*
G01*
X264725999Y-95405000D01*
G75*
G02*
X264476000Y-95155001I0J249999D01*
G01*
X264476000Y-94629999D01*
G75*
G02*
X264725999Y-94380000I249999J0D01*
G01*
G37*
G36*
G01*
X264725999Y-92555000D02*
X265626001Y-92555000D01*
G75*
G02*
X265876000Y-92804999I0J-249999D01*
G01*
X265876000Y-93330001D01*
G75*
G02*
X265626001Y-93580000I-249999J0D01*
G01*
X264725999Y-93580000D01*
G75*
G02*
X264476000Y-93330001I0J249999D01*
G01*
X264476000Y-92804999D01*
G75*
G02*
X264725999Y-92555000I249999J0D01*
G01*
G37*
%TD*%
%TO.C,R27*%
G36*
G01*
X270567999Y-104794000D02*
X271468001Y-104794000D01*
G75*
G02*
X271718000Y-105043999I0J-249999D01*
G01*
X271718000Y-105569001D01*
G75*
G02*
X271468001Y-105819000I-249999J0D01*
G01*
X270567999Y-105819000D01*
G75*
G02*
X270318000Y-105569001I0J249999D01*
G01*
X270318000Y-105043999D01*
G75*
G02*
X270567999Y-104794000I249999J0D01*
G01*
G37*
G36*
G01*
X270567999Y-102969000D02*
X271468001Y-102969000D01*
G75*
G02*
X271718000Y-103218999I0J-249999D01*
G01*
X271718000Y-103744001D01*
G75*
G02*
X271468001Y-103994000I-249999J0D01*
G01*
X270567999Y-103994000D01*
G75*
G02*
X270318000Y-103744001I0J249999D01*
G01*
X270318000Y-103218999D01*
G75*
G02*
X270567999Y-102969000I249999J0D01*
G01*
G37*
%TD*%
%TO.C,R26*%
G36*
G01*
X270567999Y-96158000D02*
X271468001Y-96158000D01*
G75*
G02*
X271718000Y-96407999I0J-249999D01*
G01*
X271718000Y-96933001D01*
G75*
G02*
X271468001Y-97183000I-249999J0D01*
G01*
X270567999Y-97183000D01*
G75*
G02*
X270318000Y-96933001I0J249999D01*
G01*
X270318000Y-96407999D01*
G75*
G02*
X270567999Y-96158000I249999J0D01*
G01*
G37*
G36*
G01*
X270567999Y-94333000D02*
X271468001Y-94333000D01*
G75*
G02*
X271718000Y-94582999I0J-249999D01*
G01*
X271718000Y-95108001D01*
G75*
G02*
X271468001Y-95358000I-249999J0D01*
G01*
X270567999Y-95358000D01*
G75*
G02*
X270318000Y-95108001I0J249999D01*
G01*
X270318000Y-94582999D01*
G75*
G02*
X270567999Y-94333000I249999J0D01*
G01*
G37*
%TD*%
%TO.C,R24*%
G36*
G01*
X189033999Y-104794000D02*
X189934001Y-104794000D01*
G75*
G02*
X190184000Y-105043999I0J-249999D01*
G01*
X190184000Y-105569001D01*
G75*
G02*
X189934001Y-105819000I-249999J0D01*
G01*
X189033999Y-105819000D01*
G75*
G02*
X188784000Y-105569001I0J249999D01*
G01*
X188784000Y-105043999D01*
G75*
G02*
X189033999Y-104794000I249999J0D01*
G01*
G37*
G36*
G01*
X189033999Y-102969000D02*
X189934001Y-102969000D01*
G75*
G02*
X190184000Y-103218999I0J-249999D01*
G01*
X190184000Y-103744001D01*
G75*
G02*
X189934001Y-103994000I-249999J0D01*
G01*
X189033999Y-103994000D01*
G75*
G02*
X188784000Y-103744001I0J249999D01*
G01*
X188784000Y-103218999D01*
G75*
G02*
X189033999Y-102969000I249999J0D01*
G01*
G37*
%TD*%
%TO.C,R23*%
G36*
G01*
X216465999Y-104286000D02*
X217366001Y-104286000D01*
G75*
G02*
X217616000Y-104535999I0J-249999D01*
G01*
X217616000Y-105061001D01*
G75*
G02*
X217366001Y-105311000I-249999J0D01*
G01*
X216465999Y-105311000D01*
G75*
G02*
X216216000Y-105061001I0J249999D01*
G01*
X216216000Y-104535999D01*
G75*
G02*
X216465999Y-104286000I249999J0D01*
G01*
G37*
G36*
G01*
X216465999Y-102461000D02*
X217366001Y-102461000D01*
G75*
G02*
X217616000Y-102710999I0J-249999D01*
G01*
X217616000Y-103236001D01*
G75*
G02*
X217366001Y-103486000I-249999J0D01*
G01*
X216465999Y-103486000D01*
G75*
G02*
X216216000Y-103236001I0J249999D01*
G01*
X216216000Y-102710999D01*
G75*
G02*
X216465999Y-102461000I249999J0D01*
G01*
G37*
%TD*%
%TO.C,R22*%
G36*
G01*
X193351999Y-104794000D02*
X194252001Y-104794000D01*
G75*
G02*
X194502000Y-105043999I0J-249999D01*
G01*
X194502000Y-105569001D01*
G75*
G02*
X194252001Y-105819000I-249999J0D01*
G01*
X193351999Y-105819000D01*
G75*
G02*
X193102000Y-105569001I0J249999D01*
G01*
X193102000Y-105043999D01*
G75*
G02*
X193351999Y-104794000I249999J0D01*
G01*
G37*
G36*
G01*
X193351999Y-102969000D02*
X194252001Y-102969000D01*
G75*
G02*
X194502000Y-103218999I0J-249999D01*
G01*
X194502000Y-103744001D01*
G75*
G02*
X194252001Y-103994000I-249999J0D01*
G01*
X193351999Y-103994000D01*
G75*
G02*
X193102000Y-103744001I0J249999D01*
G01*
X193102000Y-103218999D01*
G75*
G02*
X193351999Y-102969000I249999J0D01*
G01*
G37*
%TD*%
%TO.C,R21*%
G36*
G01*
X214179999Y-104286000D02*
X215080001Y-104286000D01*
G75*
G02*
X215330000Y-104535999I0J-249999D01*
G01*
X215330000Y-105061001D01*
G75*
G02*
X215080001Y-105311000I-249999J0D01*
G01*
X214179999Y-105311000D01*
G75*
G02*
X213930000Y-105061001I0J249999D01*
G01*
X213930000Y-104535999D01*
G75*
G02*
X214179999Y-104286000I249999J0D01*
G01*
G37*
G36*
G01*
X214179999Y-102461000D02*
X215080001Y-102461000D01*
G75*
G02*
X215330000Y-102710999I0J-249999D01*
G01*
X215330000Y-103236001D01*
G75*
G02*
X215080001Y-103486000I-249999J0D01*
G01*
X214179999Y-103486000D01*
G75*
G02*
X213930000Y-103236001I0J249999D01*
G01*
X213930000Y-102710999D01*
G75*
G02*
X214179999Y-102461000I249999J0D01*
G01*
G37*
%TD*%
%TO.C,R20*%
G36*
G01*
X198177999Y-104794000D02*
X199078001Y-104794000D01*
G75*
G02*
X199328000Y-105043999I0J-249999D01*
G01*
X199328000Y-105569001D01*
G75*
G02*
X199078001Y-105819000I-249999J0D01*
G01*
X198177999Y-105819000D01*
G75*
G02*
X197928000Y-105569001I0J249999D01*
G01*
X197928000Y-105043999D01*
G75*
G02*
X198177999Y-104794000I249999J0D01*
G01*
G37*
G36*
G01*
X198177999Y-102969000D02*
X199078001Y-102969000D01*
G75*
G02*
X199328000Y-103218999I0J-249999D01*
G01*
X199328000Y-103744001D01*
G75*
G02*
X199078001Y-103994000I-249999J0D01*
G01*
X198177999Y-103994000D01*
G75*
G02*
X197928000Y-103744001I0J249999D01*
G01*
X197928000Y-103218999D01*
G75*
G02*
X198177999Y-102969000I249999J0D01*
G01*
G37*
%TD*%
%TO.C,R19*%
G36*
G01*
X211893999Y-104286000D02*
X212794001Y-104286000D01*
G75*
G02*
X213044000Y-104535999I0J-249999D01*
G01*
X213044000Y-105061001D01*
G75*
G02*
X212794001Y-105311000I-249999J0D01*
G01*
X211893999Y-105311000D01*
G75*
G02*
X211644000Y-105061001I0J249999D01*
G01*
X211644000Y-104535999D01*
G75*
G02*
X211893999Y-104286000I249999J0D01*
G01*
G37*
G36*
G01*
X211893999Y-102461000D02*
X212794001Y-102461000D01*
G75*
G02*
X213044000Y-102710999I0J-249999D01*
G01*
X213044000Y-103236001D01*
G75*
G02*
X212794001Y-103486000I-249999J0D01*
G01*
X211893999Y-103486000D01*
G75*
G02*
X211644000Y-103236001I0J249999D01*
G01*
X211644000Y-102710999D01*
G75*
G02*
X211893999Y-102461000I249999J0D01*
G01*
G37*
%TD*%
%TO.C,R18*%
G36*
G01*
X209607999Y-104286000D02*
X210508001Y-104286000D01*
G75*
G02*
X210758000Y-104535999I0J-249999D01*
G01*
X210758000Y-105061001D01*
G75*
G02*
X210508001Y-105311000I-249999J0D01*
G01*
X209607999Y-105311000D01*
G75*
G02*
X209358000Y-105061001I0J249999D01*
G01*
X209358000Y-104535999D01*
G75*
G02*
X209607999Y-104286000I249999J0D01*
G01*
G37*
G36*
G01*
X209607999Y-102461000D02*
X210508001Y-102461000D01*
G75*
G02*
X210758000Y-102710999I0J-249999D01*
G01*
X210758000Y-103236001D01*
G75*
G02*
X210508001Y-103486000I-249999J0D01*
G01*
X209607999Y-103486000D01*
G75*
G02*
X209358000Y-103236001I0J249999D01*
G01*
X209358000Y-102710999D01*
G75*
G02*
X209607999Y-102461000I249999J0D01*
G01*
G37*
%TD*%
%TO.C,R17*%
G36*
G01*
X207321999Y-104286000D02*
X208222001Y-104286000D01*
G75*
G02*
X208472000Y-104535999I0J-249999D01*
G01*
X208472000Y-105061001D01*
G75*
G02*
X208222001Y-105311000I-249999J0D01*
G01*
X207321999Y-105311000D01*
G75*
G02*
X207072000Y-105061001I0J249999D01*
G01*
X207072000Y-104535999D01*
G75*
G02*
X207321999Y-104286000I249999J0D01*
G01*
G37*
G36*
G01*
X207321999Y-102461000D02*
X208222001Y-102461000D01*
G75*
G02*
X208472000Y-102710999I0J-249999D01*
G01*
X208472000Y-103236001D01*
G75*
G02*
X208222001Y-103486000I-249999J0D01*
G01*
X207321999Y-103486000D01*
G75*
G02*
X207072000Y-103236001I0J249999D01*
G01*
X207072000Y-102710999D01*
G75*
G02*
X207321999Y-102461000I249999J0D01*
G01*
G37*
%TD*%
%TO.C,R16*%
G36*
G01*
X205035999Y-104286000D02*
X205936001Y-104286000D01*
G75*
G02*
X206186000Y-104535999I0J-249999D01*
G01*
X206186000Y-105061001D01*
G75*
G02*
X205936001Y-105311000I-249999J0D01*
G01*
X205035999Y-105311000D01*
G75*
G02*
X204786000Y-105061001I0J249999D01*
G01*
X204786000Y-104535999D01*
G75*
G02*
X205035999Y-104286000I249999J0D01*
G01*
G37*
G36*
G01*
X205035999Y-102461000D02*
X205936001Y-102461000D01*
G75*
G02*
X206186000Y-102710999I0J-249999D01*
G01*
X206186000Y-103236001D01*
G75*
G02*
X205936001Y-103486000I-249999J0D01*
G01*
X205035999Y-103486000D01*
G75*
G02*
X204786000Y-103236001I0J249999D01*
G01*
X204786000Y-102710999D01*
G75*
G02*
X205035999Y-102461000I249999J0D01*
G01*
G37*
%TD*%
%TO.C,R15*%
G36*
G01*
X202749999Y-104286000D02*
X203650001Y-104286000D01*
G75*
G02*
X203900000Y-104535999I0J-249999D01*
G01*
X203900000Y-105061001D01*
G75*
G02*
X203650001Y-105311000I-249999J0D01*
G01*
X202749999Y-105311000D01*
G75*
G02*
X202500000Y-105061001I0J249999D01*
G01*
X202500000Y-104535999D01*
G75*
G02*
X202749999Y-104286000I249999J0D01*
G01*
G37*
G36*
G01*
X202749999Y-102461000D02*
X203650001Y-102461000D01*
G75*
G02*
X203900000Y-102710999I0J-249999D01*
G01*
X203900000Y-103236001D01*
G75*
G02*
X203650001Y-103486000I-249999J0D01*
G01*
X202749999Y-103486000D01*
G75*
G02*
X202500000Y-103236001I0J249999D01*
G01*
X202500000Y-102710999D01*
G75*
G02*
X202749999Y-102461000I249999J0D01*
G01*
G37*
%TD*%
%TO.C,R14*%
G36*
G01*
X254565999Y-91840000D02*
X255466001Y-91840000D01*
G75*
G02*
X255716000Y-92089999I0J-249999D01*
G01*
X255716000Y-92615001D01*
G75*
G02*
X255466001Y-92865000I-249999J0D01*
G01*
X254565999Y-92865000D01*
G75*
G02*
X254316000Y-92615001I0J249999D01*
G01*
X254316000Y-92089999D01*
G75*
G02*
X254565999Y-91840000I249999J0D01*
G01*
G37*
G36*
G01*
X254565999Y-90015000D02*
X255466001Y-90015000D01*
G75*
G02*
X255716000Y-90264999I0J-249999D01*
G01*
X255716000Y-90790001D01*
G75*
G02*
X255466001Y-91040000I-249999J0D01*
G01*
X254565999Y-91040000D01*
G75*
G02*
X254316000Y-90790001I0J249999D01*
G01*
X254316000Y-90264999D01*
G75*
G02*
X254565999Y-90015000I249999J0D01*
G01*
G37*
%TD*%
%TO.C,R13*%
G36*
G01*
X266338000Y-105098001D02*
X266338000Y-104197999D01*
G75*
G02*
X266587999Y-103948000I249999J0D01*
G01*
X267113001Y-103948000D01*
G75*
G02*
X267363000Y-104197999I0J-249999D01*
G01*
X267363000Y-105098001D01*
G75*
G02*
X267113001Y-105348000I-249999J0D01*
G01*
X266587999Y-105348000D01*
G75*
G02*
X266338000Y-105098001I0J249999D01*
G01*
G37*
G36*
G01*
X264513000Y-105098001D02*
X264513000Y-104197999D01*
G75*
G02*
X264762999Y-103948000I249999J0D01*
G01*
X265288001Y-103948000D01*
G75*
G02*
X265538000Y-104197999I0J-249999D01*
G01*
X265538000Y-105098001D01*
G75*
G02*
X265288001Y-105348000I-249999J0D01*
G01*
X264762999Y-105348000D01*
G75*
G02*
X264513000Y-105098001I0J249999D01*
G01*
G37*
%TD*%
%TO.C,R12*%
G36*
G01*
X265538000Y-100895999D02*
X265538000Y-101796001D01*
G75*
G02*
X265288001Y-102046000I-249999J0D01*
G01*
X264762999Y-102046000D01*
G75*
G02*
X264513000Y-101796001I0J249999D01*
G01*
X264513000Y-100895999D01*
G75*
G02*
X264762999Y-100646000I249999J0D01*
G01*
X265288001Y-100646000D01*
G75*
G02*
X265538000Y-100895999I0J-249999D01*
G01*
G37*
G36*
G01*
X267363000Y-100895999D02*
X267363000Y-101796001D01*
G75*
G02*
X267113001Y-102046000I-249999J0D01*
G01*
X266587999Y-102046000D01*
G75*
G02*
X266338000Y-101796001I0J249999D01*
G01*
X266338000Y-100895999D01*
G75*
G02*
X266587999Y-100646000I249999J0D01*
G01*
X267113001Y-100646000D01*
G75*
G02*
X267363000Y-100895999I0J-249999D01*
G01*
G37*
%TD*%
%TO.C,R11*%
G36*
G01*
X255466001Y-96628000D02*
X254565999Y-96628000D01*
G75*
G02*
X254316000Y-96378001I0J249999D01*
G01*
X254316000Y-95852999D01*
G75*
G02*
X254565999Y-95603000I249999J0D01*
G01*
X255466001Y-95603000D01*
G75*
G02*
X255716000Y-95852999I0J-249999D01*
G01*
X255716000Y-96378001D01*
G75*
G02*
X255466001Y-96628000I-249999J0D01*
G01*
G37*
G36*
G01*
X255466001Y-98453000D02*
X254565999Y-98453000D01*
G75*
G02*
X254316000Y-98203001I0J249999D01*
G01*
X254316000Y-97677999D01*
G75*
G02*
X254565999Y-97428000I249999J0D01*
G01*
X255466001Y-97428000D01*
G75*
G02*
X255716000Y-97677999I0J-249999D01*
G01*
X255716000Y-98203001D01*
G75*
G02*
X255466001Y-98453000I-249999J0D01*
G01*
G37*
%TD*%
%TO.C,R10*%
G36*
G01*
X261816001Y-96628000D02*
X260915999Y-96628000D01*
G75*
G02*
X260666000Y-96378001I0J249999D01*
G01*
X260666000Y-95852999D01*
G75*
G02*
X260915999Y-95603000I249999J0D01*
G01*
X261816001Y-95603000D01*
G75*
G02*
X262066000Y-95852999I0J-249999D01*
G01*
X262066000Y-96378001D01*
G75*
G02*
X261816001Y-96628000I-249999J0D01*
G01*
G37*
G36*
G01*
X261816001Y-98453000D02*
X260915999Y-98453000D01*
G75*
G02*
X260666000Y-98203001I0J249999D01*
G01*
X260666000Y-97677999D01*
G75*
G02*
X260915999Y-97428000I249999J0D01*
G01*
X261816001Y-97428000D01*
G75*
G02*
X262066000Y-97677999I0J-249999D01*
G01*
X262066000Y-98203001D01*
G75*
G02*
X261816001Y-98453000I-249999J0D01*
G01*
G37*
%TD*%
%TO.C,R9*%
G36*
G01*
X274428000Y-94291999D02*
X274428000Y-95192001D01*
G75*
G02*
X274178001Y-95442000I-249999J0D01*
G01*
X273652999Y-95442000D01*
G75*
G02*
X273403000Y-95192001I0J249999D01*
G01*
X273403000Y-94291999D01*
G75*
G02*
X273652999Y-94042000I249999J0D01*
G01*
X274178001Y-94042000D01*
G75*
G02*
X274428000Y-94291999I0J-249999D01*
G01*
G37*
G36*
G01*
X276253000Y-94291999D02*
X276253000Y-95192001D01*
G75*
G02*
X276003001Y-95442000I-249999J0D01*
G01*
X275477999Y-95442000D01*
G75*
G02*
X275228000Y-95192001I0J249999D01*
G01*
X275228000Y-94291999D01*
G75*
G02*
X275477999Y-94042000I249999J0D01*
G01*
X276003001Y-94042000D01*
G75*
G02*
X276253000Y-94291999I0J-249999D01*
G01*
G37*
%TD*%
%TO.C,R8*%
G36*
G01*
X244290001Y-96628000D02*
X243389999Y-96628000D01*
G75*
G02*
X243140000Y-96378001I0J249999D01*
G01*
X243140000Y-95852999D01*
G75*
G02*
X243389999Y-95603000I249999J0D01*
G01*
X244290001Y-95603000D01*
G75*
G02*
X244540000Y-95852999I0J-249999D01*
G01*
X244540000Y-96378001D01*
G75*
G02*
X244290001Y-96628000I-249999J0D01*
G01*
G37*
G36*
G01*
X244290001Y-98453000D02*
X243389999Y-98453000D01*
G75*
G02*
X243140000Y-98203001I0J249999D01*
G01*
X243140000Y-97677999D01*
G75*
G02*
X243389999Y-97428000I249999J0D01*
G01*
X244290001Y-97428000D01*
G75*
G02*
X244540000Y-97677999I0J-249999D01*
G01*
X244540000Y-98203001D01*
G75*
G02*
X244290001Y-98453000I-249999J0D01*
G01*
G37*
%TD*%
%TO.C,R7*%
G36*
G01*
X257664000Y-99879999D02*
X257664000Y-100780001D01*
G75*
G02*
X257414001Y-101030000I-249999J0D01*
G01*
X256888999Y-101030000D01*
G75*
G02*
X256639000Y-100780001I0J249999D01*
G01*
X256639000Y-99879999D01*
G75*
G02*
X256888999Y-99630000I249999J0D01*
G01*
X257414001Y-99630000D01*
G75*
G02*
X257664000Y-99879999I0J-249999D01*
G01*
G37*
G36*
G01*
X259489000Y-99879999D02*
X259489000Y-100780001D01*
G75*
G02*
X259239001Y-101030000I-249999J0D01*
G01*
X258713999Y-101030000D01*
G75*
G02*
X258464000Y-100780001I0J249999D01*
G01*
X258464000Y-99879999D01*
G75*
G02*
X258713999Y-99630000I249999J0D01*
G01*
X259239001Y-99630000D01*
G75*
G02*
X259489000Y-99879999I0J-249999D01*
G01*
G37*
%TD*%
%TO.C,R6*%
G36*
G01*
X236836000Y-95561999D02*
X236836000Y-96462001D01*
G75*
G02*
X236586001Y-96712000I-249999J0D01*
G01*
X236060999Y-96712000D01*
G75*
G02*
X235811000Y-96462001I0J249999D01*
G01*
X235811000Y-95561999D01*
G75*
G02*
X236060999Y-95312000I249999J0D01*
G01*
X236586001Y-95312000D01*
G75*
G02*
X236836000Y-95561999I0J-249999D01*
G01*
G37*
G36*
G01*
X238661000Y-95561999D02*
X238661000Y-96462001D01*
G75*
G02*
X238411001Y-96712000I-249999J0D01*
G01*
X237885999Y-96712000D01*
G75*
G02*
X237636000Y-96462001I0J249999D01*
G01*
X237636000Y-95561999D01*
G75*
G02*
X237885999Y-95312000I249999J0D01*
G01*
X238411001Y-95312000D01*
G75*
G02*
X238661000Y-95561999I0J-249999D01*
G01*
G37*
%TD*%
%TO.C,R5*%
G36*
G01*
X238702001Y-89008000D02*
X237801999Y-89008000D01*
G75*
G02*
X237552000Y-88758001I0J249999D01*
G01*
X237552000Y-88232999D01*
G75*
G02*
X237801999Y-87983000I249999J0D01*
G01*
X238702001Y-87983000D01*
G75*
G02*
X238952000Y-88232999I0J-249999D01*
G01*
X238952000Y-88758001D01*
G75*
G02*
X238702001Y-89008000I-249999J0D01*
G01*
G37*
G36*
G01*
X238702001Y-90833000D02*
X237801999Y-90833000D01*
G75*
G02*
X237552000Y-90583001I0J249999D01*
G01*
X237552000Y-90057999D01*
G75*
G02*
X237801999Y-89808000I249999J0D01*
G01*
X238702001Y-89808000D01*
G75*
G02*
X238952000Y-90057999I0J-249999D01*
G01*
X238952000Y-90583001D01*
G75*
G02*
X238702001Y-90833000I-249999J0D01*
G01*
G37*
%TD*%
%TO.C,R4*%
G36*
G01*
X243389999Y-90824000D02*
X244290001Y-90824000D01*
G75*
G02*
X244540000Y-91073999I0J-249999D01*
G01*
X244540000Y-91599001D01*
G75*
G02*
X244290001Y-91849000I-249999J0D01*
G01*
X243389999Y-91849000D01*
G75*
G02*
X243140000Y-91599001I0J249999D01*
G01*
X243140000Y-91073999D01*
G75*
G02*
X243389999Y-90824000I249999J0D01*
G01*
G37*
G36*
G01*
X243389999Y-88999000D02*
X244290001Y-88999000D01*
G75*
G02*
X244540000Y-89248999I0J-249999D01*
G01*
X244540000Y-89774001D01*
G75*
G02*
X244290001Y-90024000I-249999J0D01*
G01*
X243389999Y-90024000D01*
G75*
G02*
X243140000Y-89774001I0J249999D01*
G01*
X243140000Y-89248999D01*
G75*
G02*
X243389999Y-88999000I249999J0D01*
G01*
G37*
%TD*%
%TO.C,R3*%
G36*
G01*
X274428000Y-103181999D02*
X274428000Y-104082001D01*
G75*
G02*
X274178001Y-104332000I-249999J0D01*
G01*
X273652999Y-104332000D01*
G75*
G02*
X273403000Y-104082001I0J249999D01*
G01*
X273403000Y-103181999D01*
G75*
G02*
X273652999Y-102932000I249999J0D01*
G01*
X274178001Y-102932000D01*
G75*
G02*
X274428000Y-103181999I0J-249999D01*
G01*
G37*
G36*
G01*
X276253000Y-103181999D02*
X276253000Y-104082001D01*
G75*
G02*
X276003001Y-104332000I-249999J0D01*
G01*
X275477999Y-104332000D01*
G75*
G02*
X275228000Y-104082001I0J249999D01*
G01*
X275228000Y-103181999D01*
G75*
G02*
X275477999Y-102932000I249999J0D01*
G01*
X276003001Y-102932000D01*
G75*
G02*
X276253000Y-103181999I0J-249999D01*
G01*
G37*
%TD*%
%TO.C,R2*%
G36*
G01*
X238702001Y-92564000D02*
X237801999Y-92564000D01*
G75*
G02*
X237552000Y-92314001I0J249999D01*
G01*
X237552000Y-91788999D01*
G75*
G02*
X237801999Y-91539000I249999J0D01*
G01*
X238702001Y-91539000D01*
G75*
G02*
X238952000Y-91788999I0J-249999D01*
G01*
X238952000Y-92314001D01*
G75*
G02*
X238702001Y-92564000I-249999J0D01*
G01*
G37*
G36*
G01*
X238702001Y-94389000D02*
X237801999Y-94389000D01*
G75*
G02*
X237552000Y-94139001I0J249999D01*
G01*
X237552000Y-93613999D01*
G75*
G02*
X237801999Y-93364000I249999J0D01*
G01*
X238702001Y-93364000D01*
G75*
G02*
X238952000Y-93613999I0J-249999D01*
G01*
X238952000Y-94139001D01*
G75*
G02*
X238702001Y-94389000I-249999J0D01*
G01*
G37*
%TD*%
%TO.C,R1*%
G36*
G01*
X241446000Y-94176001D02*
X241446000Y-93275999D01*
G75*
G02*
X241695999Y-93026000I249999J0D01*
G01*
X242221001Y-93026000D01*
G75*
G02*
X242471000Y-93275999I0J-249999D01*
G01*
X242471000Y-94176001D01*
G75*
G02*
X242221001Y-94426000I-249999J0D01*
G01*
X241695999Y-94426000D01*
G75*
G02*
X241446000Y-94176001I0J249999D01*
G01*
G37*
G36*
G01*
X239621000Y-94176001D02*
X239621000Y-93275999D01*
G75*
G02*
X239870999Y-93026000I249999J0D01*
G01*
X240396001Y-93026000D01*
G75*
G02*
X240646000Y-93275999I0J-249999D01*
G01*
X240646000Y-94176001D01*
G75*
G02*
X240396001Y-94426000I-249999J0D01*
G01*
X239870999Y-94426000D01*
G75*
G02*
X239621000Y-94176001I0J249999D01*
G01*
G37*
%TD*%
%TO.C,C18*%
G36*
G01*
X186469000Y-104844000D02*
X187419000Y-104844000D01*
G75*
G02*
X187669000Y-105094000I0J-250000D01*
G01*
X187669000Y-105594000D01*
G75*
G02*
X187419000Y-105844000I-250000J0D01*
G01*
X186469000Y-105844000D01*
G75*
G02*
X186219000Y-105594000I0J250000D01*
G01*
X186219000Y-105094000D01*
G75*
G02*
X186469000Y-104844000I250000J0D01*
G01*
G37*
G36*
G01*
X186469000Y-102944000D02*
X187419000Y-102944000D01*
G75*
G02*
X187669000Y-103194000I0J-250000D01*
G01*
X187669000Y-103694000D01*
G75*
G02*
X187419000Y-103944000I-250000J0D01*
G01*
X186469000Y-103944000D01*
G75*
G02*
X186219000Y-103694000I0J250000D01*
G01*
X186219000Y-103194000D01*
G75*
G02*
X186469000Y-102944000I250000J0D01*
G01*
G37*
%TD*%
%TO.C,C17*%
G36*
G01*
X191041000Y-104844000D02*
X191991000Y-104844000D01*
G75*
G02*
X192241000Y-105094000I0J-250000D01*
G01*
X192241000Y-105594000D01*
G75*
G02*
X191991000Y-105844000I-250000J0D01*
G01*
X191041000Y-105844000D01*
G75*
G02*
X190791000Y-105594000I0J250000D01*
G01*
X190791000Y-105094000D01*
G75*
G02*
X191041000Y-104844000I250000J0D01*
G01*
G37*
G36*
G01*
X191041000Y-102944000D02*
X191991000Y-102944000D01*
G75*
G02*
X192241000Y-103194000I0J-250000D01*
G01*
X192241000Y-103694000D01*
G75*
G02*
X191991000Y-103944000I-250000J0D01*
G01*
X191041000Y-103944000D01*
G75*
G02*
X190791000Y-103694000I0J250000D01*
G01*
X190791000Y-103194000D01*
G75*
G02*
X191041000Y-102944000I250000J0D01*
G01*
G37*
%TD*%
%TO.C,C16*%
G36*
G01*
X196817000Y-103944000D02*
X195867000Y-103944000D01*
G75*
G02*
X195617000Y-103694000I0J250000D01*
G01*
X195617000Y-103194000D01*
G75*
G02*
X195867000Y-102944000I250000J0D01*
G01*
X196817000Y-102944000D01*
G75*
G02*
X197067000Y-103194000I0J-250000D01*
G01*
X197067000Y-103694000D01*
G75*
G02*
X196817000Y-103944000I-250000J0D01*
G01*
G37*
G36*
G01*
X196817000Y-105844000D02*
X195867000Y-105844000D01*
G75*
G02*
X195617000Y-105594000I0J250000D01*
G01*
X195617000Y-105094000D01*
G75*
G02*
X195867000Y-104844000I250000J0D01*
G01*
X196817000Y-104844000D01*
G75*
G02*
X197067000Y-105094000I0J-250000D01*
G01*
X197067000Y-105594000D01*
G75*
G02*
X196817000Y-105844000I-250000J0D01*
G01*
G37*
%TD*%
%TO.C,C15*%
G36*
G01*
X227018000Y-98773000D02*
X227018000Y-97823000D01*
G75*
G02*
X227268000Y-97573000I250000J0D01*
G01*
X227768000Y-97573000D01*
G75*
G02*
X228018000Y-97823000I0J-250000D01*
G01*
X228018000Y-98773000D01*
G75*
G02*
X227768000Y-99023000I-250000J0D01*
G01*
X227268000Y-99023000D01*
G75*
G02*
X227018000Y-98773000I0J250000D01*
G01*
G37*
G36*
G01*
X225118000Y-98773000D02*
X225118000Y-97823000D01*
G75*
G02*
X225368000Y-97573000I250000J0D01*
G01*
X225868000Y-97573000D01*
G75*
G02*
X226118000Y-97823000I0J-250000D01*
G01*
X226118000Y-98773000D01*
G75*
G02*
X225868000Y-99023000I-250000J0D01*
G01*
X225368000Y-99023000D01*
G75*
G02*
X225118000Y-98773000I0J250000D01*
G01*
G37*
%TD*%
%TO.C,C14*%
G36*
G01*
X227018000Y-93693000D02*
X227018000Y-92743000D01*
G75*
G02*
X227268000Y-92493000I250000J0D01*
G01*
X227768000Y-92493000D01*
G75*
G02*
X228018000Y-92743000I0J-250000D01*
G01*
X228018000Y-93693000D01*
G75*
G02*
X227768000Y-93943000I-250000J0D01*
G01*
X227268000Y-93943000D01*
G75*
G02*
X227018000Y-93693000I0J250000D01*
G01*
G37*
G36*
G01*
X225118000Y-93693000D02*
X225118000Y-92743000D01*
G75*
G02*
X225368000Y-92493000I250000J0D01*
G01*
X225868000Y-92493000D01*
G75*
G02*
X226118000Y-92743000I0J-250000D01*
G01*
X226118000Y-93693000D01*
G75*
G02*
X225868000Y-93943000I-250000J0D01*
G01*
X225368000Y-93943000D01*
G75*
G02*
X225118000Y-93693000I0J250000D01*
G01*
G37*
%TD*%
%TO.C,C11*%
G36*
G01*
X258514000Y-91153000D02*
X258514000Y-90203000D01*
G75*
G02*
X258764000Y-89953000I250000J0D01*
G01*
X259264000Y-89953000D01*
G75*
G02*
X259514000Y-90203000I0J-250000D01*
G01*
X259514000Y-91153000D01*
G75*
G02*
X259264000Y-91403000I-250000J0D01*
G01*
X258764000Y-91403000D01*
G75*
G02*
X258514000Y-91153000I0J250000D01*
G01*
G37*
G36*
G01*
X256614000Y-91153000D02*
X256614000Y-90203000D01*
G75*
G02*
X256864000Y-89953000I250000J0D01*
G01*
X257364000Y-89953000D01*
G75*
G02*
X257614000Y-90203000I0J-250000D01*
G01*
X257614000Y-91153000D01*
G75*
G02*
X257364000Y-91403000I-250000J0D01*
G01*
X256864000Y-91403000D01*
G75*
G02*
X256614000Y-91153000I0J250000D01*
G01*
G37*
%TD*%
%TO.C,C10*%
G36*
G01*
X258514000Y-93693000D02*
X258514000Y-92743000D01*
G75*
G02*
X258764000Y-92493000I250000J0D01*
G01*
X259264000Y-92493000D01*
G75*
G02*
X259514000Y-92743000I0J-250000D01*
G01*
X259514000Y-93693000D01*
G75*
G02*
X259264000Y-93943000I-250000J0D01*
G01*
X258764000Y-93943000D01*
G75*
G02*
X258514000Y-93693000I0J250000D01*
G01*
G37*
G36*
G01*
X256614000Y-93693000D02*
X256614000Y-92743000D01*
G75*
G02*
X256864000Y-92493000I250000J0D01*
G01*
X257364000Y-92493000D01*
G75*
G02*
X257614000Y-92743000I0J-250000D01*
G01*
X257614000Y-93693000D01*
G75*
G02*
X257364000Y-93943000I-250000J0D01*
G01*
X256864000Y-93943000D01*
G75*
G02*
X256614000Y-93693000I0J250000D01*
G01*
G37*
%TD*%
%TO.C,C9*%
G36*
G01*
X258514000Y-98519000D02*
X258514000Y-97569000D01*
G75*
G02*
X258764000Y-97319000I250000J0D01*
G01*
X259264000Y-97319000D01*
G75*
G02*
X259514000Y-97569000I0J-250000D01*
G01*
X259514000Y-98519000D01*
G75*
G02*
X259264000Y-98769000I-250000J0D01*
G01*
X258764000Y-98769000D01*
G75*
G02*
X258514000Y-98519000I0J250000D01*
G01*
G37*
G36*
G01*
X256614000Y-98519000D02*
X256614000Y-97569000D01*
G75*
G02*
X256864000Y-97319000I250000J0D01*
G01*
X257364000Y-97319000D01*
G75*
G02*
X257614000Y-97569000I0J-250000D01*
G01*
X257614000Y-98519000D01*
G75*
G02*
X257364000Y-98769000I-250000J0D01*
G01*
X256864000Y-98769000D01*
G75*
G02*
X256614000Y-98519000I0J250000D01*
G01*
G37*
%TD*%
%TO.C,C8*%
G36*
G01*
X258514000Y-96233000D02*
X258514000Y-95283000D01*
G75*
G02*
X258764000Y-95033000I250000J0D01*
G01*
X259264000Y-95033000D01*
G75*
G02*
X259514000Y-95283000I0J-250000D01*
G01*
X259514000Y-96233000D01*
G75*
G02*
X259264000Y-96483000I-250000J0D01*
G01*
X258764000Y-96483000D01*
G75*
G02*
X258514000Y-96233000I0J250000D01*
G01*
G37*
G36*
G01*
X256614000Y-96233000D02*
X256614000Y-95283000D01*
G75*
G02*
X256864000Y-95033000I250000J0D01*
G01*
X257364000Y-95033000D01*
G75*
G02*
X257614000Y-95283000I0J-250000D01*
G01*
X257614000Y-96233000D01*
G75*
G02*
X257364000Y-96483000I-250000J0D01*
G01*
X256864000Y-96483000D01*
G75*
G02*
X256614000Y-96233000I0J250000D01*
G01*
G37*
%TD*%
%TO.C,C7*%
G36*
G01*
X240516000Y-98077000D02*
X240516000Y-99027000D01*
G75*
G02*
X240266000Y-99277000I-250000J0D01*
G01*
X239766000Y-99277000D01*
G75*
G02*
X239516000Y-99027000I0J250000D01*
G01*
X239516000Y-98077000D01*
G75*
G02*
X239766000Y-97827000I250000J0D01*
G01*
X240266000Y-97827000D01*
G75*
G02*
X240516000Y-98077000I0J-250000D01*
G01*
G37*
G36*
G01*
X242416000Y-98077000D02*
X242416000Y-99027000D01*
G75*
G02*
X242166000Y-99277000I-250000J0D01*
G01*
X241666000Y-99277000D01*
G75*
G02*
X241416000Y-99027000I0J250000D01*
G01*
X241416000Y-98077000D01*
G75*
G02*
X241666000Y-97827000I250000J0D01*
G01*
X242166000Y-97827000D01*
G75*
G02*
X242416000Y-98077000I0J-250000D01*
G01*
G37*
%TD*%
%TO.C,C6*%
G36*
G01*
X240516000Y-95537000D02*
X240516000Y-96487000D01*
G75*
G02*
X240266000Y-96737000I-250000J0D01*
G01*
X239766000Y-96737000D01*
G75*
G02*
X239516000Y-96487000I0J250000D01*
G01*
X239516000Y-95537000D01*
G75*
G02*
X239766000Y-95287000I250000J0D01*
G01*
X240266000Y-95287000D01*
G75*
G02*
X240516000Y-95537000I0J-250000D01*
G01*
G37*
G36*
G01*
X242416000Y-95537000D02*
X242416000Y-96487000D01*
G75*
G02*
X242166000Y-96737000I-250000J0D01*
G01*
X241666000Y-96737000D01*
G75*
G02*
X241416000Y-96487000I0J250000D01*
G01*
X241416000Y-95537000D01*
G75*
G02*
X241666000Y-95287000I250000J0D01*
G01*
X242166000Y-95287000D01*
G75*
G02*
X242416000Y-95537000I0J-250000D01*
G01*
G37*
%TD*%
%TO.C,C5*%
G36*
G01*
X226118000Y-95029000D02*
X226118000Y-95979000D01*
G75*
G02*
X225868000Y-96229000I-250000J0D01*
G01*
X225368000Y-96229000D01*
G75*
G02*
X225118000Y-95979000I0J250000D01*
G01*
X225118000Y-95029000D01*
G75*
G02*
X225368000Y-94779000I250000J0D01*
G01*
X225868000Y-94779000D01*
G75*
G02*
X226118000Y-95029000I0J-250000D01*
G01*
G37*
G36*
G01*
X228018000Y-95029000D02*
X228018000Y-95979000D01*
G75*
G02*
X227768000Y-96229000I-250000J0D01*
G01*
X227268000Y-96229000D01*
G75*
G02*
X227018000Y-95979000I0J250000D01*
G01*
X227018000Y-95029000D01*
G75*
G02*
X227268000Y-94779000I250000J0D01*
G01*
X227768000Y-94779000D01*
G75*
G02*
X228018000Y-95029000I0J-250000D01*
G01*
G37*
%TD*%
%TO.C,C4*%
G36*
G01*
X192311000Y-134816000D02*
X193261000Y-134816000D01*
G75*
G02*
X193511000Y-135066000I0J-250000D01*
G01*
X193511000Y-135566000D01*
G75*
G02*
X193261000Y-135816000I-250000J0D01*
G01*
X192311000Y-135816000D01*
G75*
G02*
X192061000Y-135566000I0J250000D01*
G01*
X192061000Y-135066000D01*
G75*
G02*
X192311000Y-134816000I250000J0D01*
G01*
G37*
G36*
G01*
X192311000Y-132916000D02*
X193261000Y-132916000D01*
G75*
G02*
X193511000Y-133166000I0J-250000D01*
G01*
X193511000Y-133666000D01*
G75*
G02*
X193261000Y-133916000I-250000J0D01*
G01*
X192311000Y-133916000D01*
G75*
G02*
X192061000Y-133666000I0J250000D01*
G01*
X192061000Y-133166000D01*
G75*
G02*
X192311000Y-132916000I250000J0D01*
G01*
G37*
%TD*%
%TO.C,C3*%
G36*
G01*
X192057000Y-139642000D02*
X193007000Y-139642000D01*
G75*
G02*
X193257000Y-139892000I0J-250000D01*
G01*
X193257000Y-140392000D01*
G75*
G02*
X193007000Y-140642000I-250000J0D01*
G01*
X192057000Y-140642000D01*
G75*
G02*
X191807000Y-140392000I0J250000D01*
G01*
X191807000Y-139892000D01*
G75*
G02*
X192057000Y-139642000I250000J0D01*
G01*
G37*
G36*
G01*
X192057000Y-137742000D02*
X193007000Y-137742000D01*
G75*
G02*
X193257000Y-137992000I0J-250000D01*
G01*
X193257000Y-138492000D01*
G75*
G02*
X193007000Y-138742000I-250000J0D01*
G01*
X192057000Y-138742000D01*
G75*
G02*
X191807000Y-138492000I0J250000D01*
G01*
X191807000Y-137992000D01*
G75*
G02*
X192057000Y-137742000I250000J0D01*
G01*
G37*
%TD*%
%TO.C,C2*%
G36*
G01*
X240596000Y-88679000D02*
X240596000Y-89629000D01*
G75*
G02*
X240346000Y-89879000I-250000J0D01*
G01*
X239846000Y-89879000D01*
G75*
G02*
X239596000Y-89629000I0J250000D01*
G01*
X239596000Y-88679000D01*
G75*
G02*
X239846000Y-88429000I250000J0D01*
G01*
X240346000Y-88429000D01*
G75*
G02*
X240596000Y-88679000I0J-250000D01*
G01*
G37*
G36*
G01*
X242496000Y-88679000D02*
X242496000Y-89629000D01*
G75*
G02*
X242246000Y-89879000I-250000J0D01*
G01*
X241746000Y-89879000D01*
G75*
G02*
X241496000Y-89629000I0J250000D01*
G01*
X241496000Y-88679000D01*
G75*
G02*
X241746000Y-88429000I250000J0D01*
G01*
X242246000Y-88429000D01*
G75*
G02*
X242496000Y-88679000I0J-250000D01*
G01*
G37*
%TD*%
%TO.C,C1*%
G36*
G01*
X240596000Y-90965000D02*
X240596000Y-91915000D01*
G75*
G02*
X240346000Y-92165000I-250000J0D01*
G01*
X239846000Y-92165000D01*
G75*
G02*
X239596000Y-91915000I0J250000D01*
G01*
X239596000Y-90965000D01*
G75*
G02*
X239846000Y-90715000I250000J0D01*
G01*
X240346000Y-90715000D01*
G75*
G02*
X240596000Y-90965000I0J-250000D01*
G01*
G37*
G36*
G01*
X242496000Y-90965000D02*
X242496000Y-91915000D01*
G75*
G02*
X242246000Y-92165000I-250000J0D01*
G01*
X241746000Y-92165000D01*
G75*
G02*
X241496000Y-91915000I0J250000D01*
G01*
X241496000Y-90965000D01*
G75*
G02*
X241746000Y-90715000I250000J0D01*
G01*
X242246000Y-90715000D01*
G75*
G02*
X242496000Y-90965000I0J-250000D01*
G01*
G37*
%TD*%
M02*
